{
  "accessors": [
    {
      "bufferView": 2,
      "componentType": 5126,
      "count": 6,
      "max": [
        531.267822265625,
        -48.23958206176758,
        4593.966796875
      ],
      "min": [
        531.267822265625,
        -53.319583892822266,
        4563.52734375
      ],
      "type": "VEC3"
    },
    {
      "bufferView": 2,
      "byteOffset": 72,
      "componentType": 5126,
      "count": 6,
      "max": [
        1.0,
        0.8728715777397156,
        0.6666668057441711
      ],
      "min": [
        0.16222095489501953,
        -0.9733287692070007,
        -0.4364357888698578
      ],
      "type": "VEC3"
    },
    {
      "bufferView": 3,
      "componentType": 5126,
      "count": 6,
      "max": [
        0.0,
        0.0,
        0.0,
        1.0
      ],
      "min": [
        0.0,
        0.0,
        0.0,
        1.0
      ],
      "type": "VEC4"
    },
    {
      "bufferView": 1,
      "componentType": 5126,
      "count": 6,
      "max": [
        0.1996770054101944,
        0.43578198552131653
      ],
      "min": [
        0.1996770054101944,
        0.43578198552131653
      ],
      "type": "VEC2"
    },
    {
      "bufferView": 0,
      "componentType": 5125,
      "count": 6,
      "type": "SCALAR"
    },
    {
      "bufferView": 2,
      "byteOffset": 144,
      "componentType": 5126,
      "count": 486,
      "max": [
        531.267822265625,
        -0.0,
        4629.5263671875
      ],
      "min": [
        429.7084655761719,
        -99.03948974609375,
        4527.96728515625
      ],
      "type": "VEC3"
    },
    {
      "bufferView": 2,
      "byteOffset": 5976,
      "componentType": 5126,
      "count": 486,
      "max": [
        1.0,
        1.0,
        1.0
      ],
      "min": [
        -1.0,
        -0.9878785014152527,
        -1.0
      ],
      "type": "VEC3"
    },
    {
      "bufferView": 3,
      "byteOffset": 96,
      "componentType": 5126,
      "count": 486,
      "max": [
        1.0,
        1.0,
        1.0,
        1.0
      ],
      "min": [
        0.0,
        0.0,
        0.0,
        1.0
      ],
      "type": "VEC4"
    },
    {
      "bufferView": 1,
      "byteOffset": 48,
      "componentType": 5126,
      "count": 486,
      "max": [
        0.9999979734420776,
        1.0
      ],
      "min": [
        -1.9999999949504854e-06,
        0.0
      ],
      "type": "VEC2"
    },
    {
      "bufferView": 0,
      "byteOffset": 24,
      "componentType": 5125,
      "count": 2706,
      "type": "SCALAR"
    },
    {
      "bufferView": 2,
      "byteOffset": 11808,
      "componentType": 5126,
      "count": 26,
      "max": [
        528.7481689453125,
        -10.159992218017578,
        4588.92724609375
      ],
      "min": [
        528.7481689453125,
        -40.59929275512695,
        4571.126953125
      ],
      "type": "VEC3"
    },
    {
      "bufferView": 2,
      "byteOffset": 12120,
      "componentType": 5126,
      "count": 26,
      "max": [
        0.8017836809158325,
        1.0,
        0.7071068286895752
      ],
      "min": [
        -0.5773503184318542,
        -0.8944270014762878,
        -0.7071068286895752
      ],
      "type": "VEC3"
    },
    {
      "bufferView": 3,
      "byteOffset": 7872,
      "componentType": 5126,
      "count": 26,
      "max": [
        1.0,
        1.0,
        1.0,
        1.0
      ],
      "min": [
        1.0,
        1.0,
        1.0,
        1.0
      ],
      "type": "VEC4"
    },
    {
      "bufferView": 1,
      "byteOffset": 3936,
      "componentType": 5126,
      "count": 26,
      "max": [
        1.0,
        1.0
      ],
      "min": [
        -9.699999645818025e-05,
        -0.0
      ],
      "type": "VEC2"
    },
    {
      "bufferView": 0,
      "byteOffset": 10848,
      "componentType": 5125,
      "count": 48,
      "type": "SCALAR"
    },
    {
      "bufferView": 2,
      "byteOffset": 12432,
      "componentType": 5126,
      "count": 364,
      "max": [
        531.6949462890625,
        -7.599674224853516,
        4591.3134765625
      ],
      "min": [
        477.9481506347656,
        -99.03948974609375,
        4568.7138671875
      ],
      "type": "VEC3"
    },
    {
      "bufferView": 2,
      "byteOffset": 16800,
      "componentType": 5126,
      "count": 364,
      "max": [
        1.0,
        1.0,
        1.0
      ],
      "min": [
        -1.0,
        -1.0,
        -1.0
      ],
      "type": "VEC3"
    },
    {
      "bufferView": 3,
      "byteOffset": 8288,
      "componentType": 5126,
      "count": 364,
      "max": [
        1.0,
        1.0,
        1.0,
        1.0
      ],
      "min": [
        0.0,
        0.0,
        0.0,
        1.0
      ],
      "type": "VEC4"
    },
    {
      "bufferView": 1,
      "byteOffset": 4144,
      "componentType": 5126,
      "count": 364,
      "max": [
        1.0000020265579224,
        1.0
      ],
      "min": [
        -4.8000001697801054e-05,
        0.0
      ],
      "type": "VEC2"
    },
    {
      "bufferView": 0,
      "byteOffset": 11040,
      "componentType": 5125,
      "count": 735,
      "type": "SCALAR"
    },
    {
      "bufferView": 2,
      "byteOffset": 21168,
      "componentType": 5126,
      "count": 3258,
      "max": [
        532.5496215820313,
        -40.766571044921875,
        4591.3134765625
      ],
      "min": [
        531.6946411132813,
        -53.20220947265625,
        4568.7138671875
      ],
      "type": "VEC3"
    },
    {
      "bufferView": 2,
      "byteOffset": 60264,
      "componentType": 5126,
      "count": 3258,
      "max": [
        1.0,
        0.8468835949897766,
        0.892576277256012
      ],
      "min": [
        0.39623892307281494,
        -0.8918057680130005,
        -0.905045211315155
      ],
      "type": "VEC3"
    },
    {
      "bufferView": 3,
      "byteOffset": 14112,
      "componentType": 5126,
      "count": 3258,
      "max": [
        1.0,
        1.0,
        1.0,
        1.0
      ],
      "min": [
        0.0,
        0.0,
        0.0,
        1.0
      ],
      "type": "VEC4"
    },
    {
      "bufferView": 1,
      "byteOffset": 7056,
      "componentType": 5126,
      "count": 3258,
      "max": [
        0.9983019828796387,
        0.9961090087890625
      ],
      "min": [
        0.0,
        0.0
      ],
      "type": "VEC2"
    },
    {
      "bufferView": 0,
      "byteOffset": 13980,
      "componentType": 5125,
      "count": 19239,
      "type": "SCALAR"
    }
  ],
  "asset": {
    "extras": {
      "author": "tl0615 (https://sketchfab.com/tl0615)",
      "license": "CC-BY-4.0 (http://creativecommons.org/licenses/by/4.0/)",
      "source": "https://sketchfab.com/3d-models/pyramid-casino-8ec6e308a328418db19dc9212962640c",
      "title": "Pyramid Casino"
    },
    "generator": "Sketchfab-12.67.0",
    "version": "2.0"
  },
  "bufferViews": [
    {
      "buffer": 0,
      "byteLength": 90936,
      "name": "floatBufferViews",
      "target": 34963
    },
    {
      "buffer": 0,
      "byteLength": 33120,
      "byteOffset": 90936,
      "byteStride": 8,
      "name": "floatBufferViews",
      "target": 34962
    },
    {
      "buffer": 0,
      "byteLength": 99360,
      "byteOffset": 124056,
      "byteStride": 12,
      "name": "floatBufferViews",
      "target": 34962
    },
    {
      "buffer": 0,
      "byteLength": 66240,
      "byteOffset": 223416,
      "byteStride": 16,
      "name": "floatBufferViews",
      "target": 34962
    }
  ],
  "buffers": [
    {
      "byteLength": 289656,
      "uri": "scene.bin"
    }
  ],
  "images": [
    {
      "uri": "textures/material_0_baseColor.jpeg"
    },
    {
      "uri": "textures/material_2_baseColor.jpeg"
    },
    {
      "uri": "textures/material_3_baseColor.png"
    },
    {
      "uri": "textures/material_4_baseColor.jpeg"
    }
  ],
  "materials": [
    {
      "doubleSided": true,
      "name": "material_0",
      "pbrMetallicRoughness": {
        "baseColorTexture": {
          "index": 0
        },
        "metallicFactor": 0.0
      }
    },
    {
      "doubleSided": true,
      "name": "material_1",
      "pbrMetallicRoughness": {
        "baseColorTexture": {
          "index": 0
        },
        "metallicFactor": 0.0
      }
    },
    {
      "doubleSided": true,
      "emissiveFactor": [
        0.9291264615216243,
        0.9291264615216243,
        0.9291264615216243
      ],
      "emissiveTexture": {
        "index": 1
      },
      "name": "material_2",
      "pbrMetallicRoughness": {
        "baseColorTexture": {
          "index": 1
        },
        "metallicFactor": 0.0
      }
    },
    {
      "doubleSided": true,
      "emissiveFactor": [
        0.7467212666216734,
        0.7467212666216734,
        0.7467212666216734
      ],
      "emissiveTexture": {
        "index": 2
      },
      "name": "material_3",
      "pbrMetallicRoughness": {
        "baseColorTexture": {
          "index": 2
        },
        "metallicFactor": 0.0
      }
    },
    {
      "doubleSided": true,
      "emissiveFactor": [
        0.8075229982549903,
        0.8075229982549903,
        0.8075229982549903
      ],
      "emissiveTexture": {
        "index": 3
      },
      "name": "material_4",
      "pbrMetallicRoughness": {
        "baseColorTexture": {
          "index": 3
        },
        "metallicFactor": 0.0
      }
    }
  ],
  "meshes": [
    {
      "name": "Object_0",
      "primitives": [
        {
          "attributes": {
            "COLOR_0": 2,
            "NORMAL": 1,
            "POSITION": 0,
            "TEXCOORD_0": 3
          },
          "indices": 4,
          "material": 0,
          "mode": 4
        }
      ]
    },
    {
      "name": "Object_1",
      "primitives": [
        {
          "attributes": {
            "COLOR_0": 7,
            "NORMAL": 6,
            "POSITION": 5,
            "TEXCOORD_0": 8
          },
          "indices": 9,
          "material": 1,
          "mode": 4
        }
      ]
    },
    {
      "name": "Object_2",
      "primitives": [
        {
          "attributes": {
            "COLOR_0": 12,
            "NORMAL": 11,
            "POSITION": 10,
            "TEXCOORD_0": 13
          },
          "indices": 14,
          "material": 2,
          "mode": 4
        }
      ]
    },
    {
      "name": "Object_3",
      "primitives": [
        {
          "attributes": {
            "COLOR_0": 17,
            "NORMAL": 16,
            "POSITION": 15,
            "TEXCOORD_0": 18
          },
          "indices": 19,
          "material": 3,
          "mode": 4
        }
      ]
    },
    {
      "name": "Object_4",
      "primitives": [
        {
          "attributes": {
            "COLOR_0": 22,
            "NORMAL": 21,
            "POSITION": 20,
            "TEXCOORD_0": 23
          },
          "indices": 24,
          "material": 4,
          "mode": 4
        }
      ]
    }
  ],
  "nodes": [
    {
      "children": [
        1
      ],
      "matrix": [
        0.0,
        -2.498001805406602e-16,
        0.5,
        0.0,
        1.3877787807814457e-16,
        -0.5,
        -2.7755575615628914e-16,
        0.0,
        0.5,
        1.6653345369377348e-16,
        2.775557561562895e-17,
        0.0,
        -4097.62060546875,
        4529.22998046875,
        -431.6092529296865,
        1.0
      ],
      "name": "Sketchfab_model"
    },
    {
      "children": [
        2,
        3,
        4,
        5,
        6
      ],
      "name": "pyr.obj.cleaner.materialmerger.gles"
    },
    {
      "mesh": 0,
      "name": "Object_2"
    },
    {
      "mesh": 1,
      "name": "Object_3"
    },
    {
      "mesh": 2,
      "name": "Object_4"
    },
    {
      "mesh": 3,
      "name": "Object_5"
    },
    {
      "mesh": 4,
      "name": "Object_6"
    }
  ],
  "samplers": [
    {
      "magFilter": 9729,
      "minFilter": 9987,
      "wrapS": 10497,
      "wrapT": 10497
    }
  ],
  "scene": 0,
  "scenes": [
    {
      "name": "Sketchfab_Scene",
      "nodes": [
        0
      ]
    }
  ],
  "textures": [
    {
      "sampler": 0,
      "source": 0
    },
    {
      "sampler": 0,
      "source": 1
    },
    {
      "sampler": 0,
      "source": 2
    },
    {
      "sampler": 0,
      "source": 3
    }
  ]
}
