{
  "accessors": [
    {
      "bufferView": 2,
      "componentType": 5126,
      "count": 775,
      "max": [
        53.427398681640625,
        48.524200439453125,
        48.93709945678711
      ],
      "min": [
        -57.08449935913086,
        -59.58509826660156,
        -57.08919906616211
      ],
      "type": "VEC3"
    },
    {
      "bufferView": 2,
      "byteOffset": 9300,
      "componentType": 5126,
      "count": 775,
      "max": [
        0.9999949932098389,
        0.9931305050849915,
        0.9875538945198059
      ],
      "min": [
        -0.9915079474449158,
        -0.9866010546684265,
        -0.9987138509750366
      ],
      "type": "VEC3"
    },
    {
      "bufferView": 1,
      "componentType": 5126,
      "count": 775,
      "max": [
        1.0,
        1.0
      ],
      "min": [
        0.0,
        0.0
      ],
      "type": "VEC2"
    },
    {
      "bufferView": 0,
      "componentType": 5125,
      "count": 2976,
      "type": "SCALAR"
    },
    {
      "bufferView": 2,
      "byteOffset": 18600,
      "componentType": 5126,
      "count": 7775,
      "max": [
        66.18190002441406,
        61.10749816894531,
        68.55400085449219
      ],
      "min": [
        -68.5542984008789,
        -67.61710357666016,
        -68.2261962890625
      ],
      "type": "VEC3"
    },
    {
      "bufferView": 2,
      "byteOffset": 111900,
      "componentType": 5126,
      "count": 7775,
      "max": [
        0.99992835521698,
        0.9999957084655762,
        0.999967098236084
      ],
      "min": [
        -0.9999353885650635,
        -0.9998660087585449,
        -0.9999721050262451
      ],
      "type": "VEC3"
    },
    {
      "bufferView": 1,
      "byteOffset": 6200,
      "componentType": 5126,
      "count": 7775,
      "max": [
        1.0,
        1.0
      ],
      "min": [
        0.0,
        0.0
      ],
      "type": "VEC2"
    },
    {
      "bufferView": 0,
      "byteOffset": 11904,
      "componentType": 5125,
      "count": 29856,
      "type": "SCALAR"
    },
    {
      "bufferView": 2,
      "byteOffset": 205200,
      "componentType": 5126,
      "count": 10944,
      "max": [
        66.5073013305664,
        61.10749816894531,
        69.2843017578125
      ],
      "min": [
        -69.02469635009766,
        -68.45449829101563,
        -69.3147964477539
      ],
      "type": "VEC3"
    },
    {
      "bufferView": 2,
      "byteOffset": 336528,
      "componentType": 5126,
      "count": 10944,
      "max": [
        0.9999635219573975,
        0.9999957084655762,
        0.999967098236084
      ],
      "min": [
        -0.9996233582496643,
        -0.9999549388885498,
        -0.9999721050262451
      ],
      "type": "VEC3"
    },
    {
      "bufferView": 1,
      "byteOffset": 68400,
      "componentType": 5126,
      "count": 10944,
      "max": [
        1.0,
        1.0
      ],
      "min": [
        0.0,
        0.0
      ],
      "type": "VEC2"
    },
    {
      "bufferView": 0,
      "byteOffset": 131328,
      "componentType": 5125,
      "count": 42240,
      "type": "SCALAR"
    },
    {
      "bufferView": 2,
      "byteOffset": 467856,
      "componentType": 5126,
      "count": 224,
      "max": [
        104.33560180664063,
        88.98560333251953,
        105.63800048828125
      ],
      "min": [
        -117.50589752197266,
        -111.89089965820313,
        -118.01519775390625
      ],
      "type": "VEC3"
    },
    {
      "bufferView": 2,
      "byteOffset": 470544,
      "componentType": 5126,
      "count": 224,
      "max": [
        0.998680830001831,
        0.980530858039856,
        0.9974322319030762
      ],
      "min": [
        -0.998680830001831,
        -0.980530858039856,
        -0.9974322319030762
      ],
      "type": "VEC3"
    },
    {
      "bufferView": 1,
      "byteOffset": 155952,
      "componentType": 5126,
      "count": 224,
      "max": [
        0.9688000082969666,
        2.9688000679016113
      ],
      "min": [
        0.031199999153614044,
        2.0313000679016113
      ],
      "type": "VEC2"
    },
    {
      "bufferView": 0,
      "byteOffset": 300288,
      "componentType": 5125,
      "count": 756,
      "type": "SCALAR"
    },
    {
      "bufferView": 2,
      "byteOffset": 473232,
      "componentType": 5126,
      "count": 448,
      "max": [
        104.33560180664063,
        88.98560333251953,
        105.62259674072266
      ],
      "min": [
        -117.37349700927734,
        -111.89089965820313,
        -117.83769989013672
      ],
      "type": "VEC3"
    },
    {
      "bufferView": 2,
      "byteOffset": 478608,
      "componentType": 5126,
      "count": 448,
      "max": [
        0.9900530576705933,
        0.9981375932693481,
        0.9937822222709656
      ],
      "min": [
        -0.99131840467453,
        -0.996912956237793,
        -0.9935945868492126
      ],
      "type": "VEC3"
    },
    {
      "bufferView": 1,
      "byteOffset": 157744,
      "componentType": 5126,
      "count": 448,
      "max": [
        2.9688000679016113,
        2.9688000679016113
      ],
      "min": [
        -1.9687999486923218,
        -1.9687999486923218
      ],
      "type": "VEC2"
    },
    {
      "bufferView": 0,
      "byteOffset": 303312,
      "componentType": 5125,
      "count": 1512,
      "type": "SCALAR"
    },
    {
      "bufferView": 2,
      "byteOffset": 483984,
      "componentType": 5126,
      "count": 5368,
      "max": [
        47.63460159301758,
        43.92490005493164,
        -82.19259643554688
      ],
      "min": [
        -16.965200424194336,
        -21.023000717163086,
        -129.2740020751953
      ],
      "type": "VEC3"
    },
    {
      "bufferView": 2,
      "byteOffset": 548400,
      "componentType": 5126,
      "count": 5368,
      "max": [
        0.9757859110832214,
        0.971246063709259,
        0.9974322319030762
      ],
      "min": [
        -0.9781486392021179,
        -0.9733225107192993,
        -0.9974322319030762
      ],
      "type": "VEC3"
    },
    {
      "bufferView": 1,
      "byteOffset": 161328,
      "componentType": 5126,
      "count": 5368,
      "max": [
        4.968800067901611,
        4.968800067901611
      ],
      "min": [
        -3.9688000679016113,
        0.031199999153614044
      ],
      "type": "VEC2"
    },
    {
      "bufferView": 0,
      "byteOffset": 309360,
      "componentType": 5125,
      "count": 18144,
      "type": "SCALAR"
    },
    {
      "bufferView": 2,
      "byteOffset": 612816,
      "componentType": 5126,
      "count": 5368,
      "max": [
        64.3584976196289,
        -68.71199798583984,
        15.168399810791016
      ],
      "min": [
        1.4249999523162842,
        -124.11609649658203,
        -51.40919876098633
      ],
      "type": "VEC3"
    },
    {
      "bufferView": 2,
      "byteOffset": 677232,
      "componentType": 5126,
      "count": 5368,
      "max": [
        0.9497582316398621,
        0.9837968349456787,
        0.9584799408912659
      ],
      "min": [
        -0.9551107287406921,
        -0.9837968349456787,
        -0.9546248912811279
      ],
      "type": "VEC3"
    },
    {
      "bufferView": 1,
      "byteOffset": 204272,
      "componentType": 5126,
      "count": 5368,
      "max": [
        4.968800067901611,
        4.968800067901611
      ],
      "min": [
        -3.9688000679016113,
        0.031199999153614044
      ],
      "type": "VEC2"
    },
    {
      "bufferView": 0,
      "byteOffset": 381936,
      "componentType": 5125,
      "count": 18144,
      "type": "SCALAR"
    },
    {
      "bufferView": 2,
      "byteOffset": 741648,
      "componentType": 5126,
      "count": 5368,
      "max": [
        -13.99839973449707,
        101.83360290527344,
        65.03019714355469
      ],
      "min": [
        -70.4354019165039,
        40.64189910888672,
        8.2878999710083
      ],
      "type": "VEC3"
    },
    {
      "bufferView": 2,
      "byteOffset": 806064,
      "componentType": 5126,
      "count": 5368,
      "max": [
        0.9745855927467346,
        0.9730024337768555,
        0.9717098474502563
      ],
      "min": [
        -0.9728918671607971,
        -0.9689726233482361,
        -0.9693741202354431
      ],
      "type": "VEC3"
    },
    {
      "bufferView": 1,
      "byteOffset": 247216,
      "componentType": 5126,
      "count": 5368,
      "max": [
        4.968800067901611,
        4.968800067901611
      ],
      "min": [
        -3.9688000679016113,
        0.031199999153614044
      ],
      "type": "VEC2"
    },
    {
      "bufferView": 0,
      "byteOffset": 454512,
      "componentType": 5125,
      "count": 18144,
      "type": "SCALAR"
    },
    {
      "bufferView": 2,
      "byteOffset": 870480,
      "componentType": 5126,
      "count": 5368,
      "max": [
        102.38590240478516,
        67.78939819335938,
        -7.933599948883057
      ],
      "min": [
        44.74720001220703,
        8.61050033569336,
        -70.60189819335938
      ],
      "type": "VEC3"
    },
    {
      "bufferView": 2,
      "byteOffset": 934896,
      "componentType": 5126,
      "count": 5368,
      "max": [
        0.9900530576705933,
        0.9656606912612915,
        0.9661026000976563
      ],
      "min": [
        -0.99131840467453,
        -0.9692667126655579,
        -0.952386200428009
      ],
      "type": "VEC3"
    },
    {
      "bufferView": 1,
      "byteOffset": 290160,
      "componentType": 5126,
      "count": 5368,
      "max": [
        4.968800067901611,
        4.968800067901611
      ],
      "min": [
        -3.9688000679016113,
        0.031199999153614044
      ],
      "type": "VEC2"
    },
    {
      "bufferView": 0,
      "byteOffset": 527088,
      "componentType": 5125,
      "count": 18144,
      "type": "SCALAR"
    },
    {
      "bufferView": 2,
      "byteOffset": 999312,
      "componentType": 5126,
      "count": 5368,
      "max": [
        -81.08719635009766,
        51.22700119018555,
        22.56399917602539
      ],
      "min": [
        -129.1020965576172,
        -8.18529987335205,
        -37.520599365234375
      ],
      "type": "VEC3"
    },
    {
      "bufferView": 2,
      "byteOffset": 1063728,
      "componentType": 5126,
      "count": 5368,
      "max": [
        0.9989410638809204,
        0.9981375932693481,
        0.9937822222709656
      ],
      "min": [
        -0.9989410638809204,
        -0.996912956237793,
        -0.9935945868492126
      ],
      "type": "VEC3"
    },
    {
      "bufferView": 1,
      "byteOffset": 333104,
      "componentType": 5126,
      "count": 5368,
      "max": [
        4.968800067901611,
        4.968800067901611
      ],
      "min": [
        -3.9688000679016113,
        0.031199999153614044
      ],
      "type": "VEC2"
    },
    {
      "bufferView": 0,
      "byteOffset": 599664,
      "componentType": 5125,
      "count": 18144,
      "type": "SCALAR"
    },
    {
      "bufferView": 2,
      "byteOffset": 1128144,
      "componentType": 5126,
      "count": 5368,
      "max": [
        36.702999114990234,
        61.391700744628906,
        117.92220306396484
      ],
      "min": [
        -31.662700653076172,
        -4.995699882507324,
        65.9625015258789
      ],
      "type": "VEC3"
    },
    {
      "bufferView": 2,
      "byteOffset": 1192560,
      "componentType": 5126,
      "count": 5368,
      "max": [
        0.9584859609603882,
        0.9676635265350342,
        0.9906483888626099
      ],
      "min": [
        -0.9629341959953308,
        -0.9628687500953674,
        -0.9906483888626099
      ],
      "type": "VEC3"
    },
    {
      "bufferView": 1,
      "byteOffset": 376048,
      "componentType": 5126,
      "count": 5368,
      "max": [
        4.968800067901611,
        4.968800067901611
      ],
      "min": [
        -3.9688000679016113,
        0.031199999153614044
      ],
      "type": "VEC2"
    },
    {
      "bufferView": 0,
      "byteOffset": 672240,
      "componentType": 5125,
      "count": 18144,
      "type": "SCALAR"
    },
    {
      "bufferView": 2,
      "byteOffset": 1256976,
      "componentType": 5126,
      "count": 5368,
      "max": [
        117.81109619140625,
        75.4854965209961,
        49.48849868774414
      ],
      "min": [
        59.91809844970703,
        18.891199111938477,
        -3.6194000244140625
      ],
      "type": "VEC3"
    },
    {
      "bufferView": 2,
      "byteOffset": 1321392,
      "componentType": 5126,
      "count": 5368,
      "max": [
        0.968386173248291,
        0.9610195159912109,
        0.9884931445121765
      ],
      "min": [
        -0.9717028141021729,
        -0.9631943702697754,
        -0.9872854948043823
      ],
      "type": "VEC3"
    },
    {
      "bufferView": 1,
      "byteOffset": 418992,
      "componentType": 5126,
      "count": 5368,
      "max": [
        4.968800067901611,
        4.968800067901611
      ],
      "min": [
        -3.9688000679016113,
        0.031199999153614044
      ],
      "type": "VEC2"
    },
    {
      "bufferView": 0,
      "byteOffset": 744816,
      "componentType": 5125,
      "count": 18144,
      "type": "SCALAR"
    },
    {
      "bufferView": 2,
      "byteOffset": 1385808,
      "componentType": 5126,
      "count": 584,
      "max": [
        77.09809875488281,
        68.43560028076172,
        78.67559814453125
      ],
      "min": [
        -77.8406982421875,
        -76.9697036743164,
        -79.50070190429688
      ],
      "type": "VEC3"
    },
    {
      "bufferView": 2,
      "byteOffset": 1392816,
      "componentType": 5126,
      "count": 584,
      "max": [
        0.9919214248657227,
        0.9798451662063599,
        0.9913164377212524
      ],
      "min": [
        -0.9825074076652527,
        -0.9889266490936279,
        -0.9607152342796326
      ],
      "type": "VEC3"
    },
    {
      "bufferView": 1,
      "byteOffset": 461936,
      "componentType": 5126,
      "count": 584,
      "max": [
        1.0,
        1.0
      ],
      "min": [
        0.0,
        0.0
      ],
      "type": "VEC2"
    },
    {
      "bufferView": 0,
      "byteOffset": 817392,
      "componentType": 5125,
      "count": 876,
      "type": "SCALAR"
    }
  ],
  "asset": {
    "extras": {
      "author": "linkitch (https://sketchfab.com/linkitch)",
      "license": "CC-BY-NC-4.0 (http://creativecommons.org/licenses/by-nc/4.0/)",
      "source": "https://sketchfab.com/3d-models/minecraft-sphere-world-2-7ec64bfd6b874374a4f95e18d77b2b93",
      "title": "Minecraft Sphere World 2"
    },
    "generator": "Sketchfab-12.65.0",
    "version": "2.0"
  },
  "bufferViews": [
    {
      "buffer": 0,
      "byteLength": 820896,
      "name": "floatBufferViews",
      "target": 34963
    },
    {
      "buffer": 0,
      "byteLength": 466608,
      "byteOffset": 820896,
      "byteStride": 8,
      "name": "floatBufferViews",
      "target": 34962
    },
    {
      "buffer": 0,
      "byteLength": 1399824,
      "byteOffset": 1287504,
      "byteStride": 12,
      "name": "floatBufferViews",
      "target": 34962
    }
  ],
  "buffers": [
    {
      "byteLength": 2687328,
      "uri": "scene.bin"
    }
  ],
  "images": [
    {
      "uri": "textures/Dirt_baseColor.png"
    },
    {
      "uri": "textures/GrassSide_baseColor.png"
    },
    {
      "uri": "textures/GrassTop_baseColor.png"
    },
    {
      "uri": "textures/Log_Top_baseColor.png"
    },
    {
      "uri": "textures/material_baseColor.png"
    },
    {
      "uri": "textures/Oak_Leaves_baseColor.png"
    },
    {
      "uri": "textures/TallGrass_baseColor.png"
    }
  ],
  "materials": [
    {
      "doubleSided": true,
      "emissiveTexture": {
        "index": 1
      },
      "name": "Dirt",
      "pbrMetallicRoughness": {
        "baseColorTexture": {
          "index": 0
        },
        "metallicFactor": 0.0,
        "roughnessFactor": 0.6
      }
    },
    {
      "doubleSided": true,
      "name": "GrassSide",
      "pbrMetallicRoughness": {
        "baseColorTexture": {
          "index": 2
        },
        "metallicFactor": 0.0,
        "roughnessFactor": 0.6
      }
    },
    {
      "doubleSided": true,
      "emissiveTexture": {
        "index": 4
      },
      "name": "GrassTop",
      "pbrMetallicRoughness": {
        "baseColorTexture": {
          "index": 3
        },
        "metallicFactor": 0.0,
        "roughnessFactor": 0.6
      }
    },
    {
      "doubleSided": true,
      "name": "Log_Top",
      "pbrMetallicRoughness": {
        "baseColorTexture": {
          "index": 5
        },
        "metallicFactor": 0.0,
        "roughnessFactor": 0.6
      }
    },
    {
      "doubleSided": true,
      "name": "material",
      "pbrMetallicRoughness": {
        "baseColorTexture": {
          "index": 6
        },
        "metallicFactor": 0.0,
        "roughnessFactor": 0.6
      }
    },
    {
      "doubleSided": true,
      "name": "Oak_Leaves",
      "pbrMetallicRoughness": {
        "baseColorTexture": {
          "index": 7
        },
        "metallicFactor": 0.0,
        "roughnessFactor": 0.6
      }
    },
    {
      "doubleSided": true,
      "name": "TallGrass",
      "pbrMetallicRoughness": {
        "baseColorTexture": {
          "index": 8
        },
        "metallicFactor": 0.0,
        "roughnessFactor": 0.6
      }
    }
  ],
  "meshes": [
    {
      "name": "Object_0",
      "primitives": [
        {
          "attributes": {
            "NORMAL": 1,
            "POSITION": 0,
            "TEXCOORD_0": 2
          },
          "indices": 3,
          "material": 0,
          "mode": 4
        }
      ]
    },
    {
      "name": "Object_1",
      "primitives": [
        {
          "attributes": {
            "NORMAL": 5,
            "POSITION": 4,
            "TEXCOORD_0": 6
          },
          "indices": 7,
          "material": 1,
          "mode": 4
        }
      ]
    },
    {
      "name": "Object_2",
      "primitives": [
        {
          "attributes": {
            "NORMAL": 9,
            "POSITION": 8,
            "TEXCOORD_0": 10
          },
          "indices": 11,
          "material": 2,
          "mode": 4
        }
      ]
    },
    {
      "name": "Object_3",
      "primitives": [
        {
          "attributes": {
            "NORMAL": 13,
            "POSITION": 12,
            "TEXCOORD_0": 14
          },
          "indices": 15,
          "material": 3,
          "mode": 4
        }
      ]
    },
    {
      "name": "Object_4",
      "primitives": [
        {
          "attributes": {
            "NORMAL": 17,
            "POSITION": 16,
            "TEXCOORD_0": 18
          },
          "indices": 19,
          "material": 4,
          "mode": 4
        }
      ]
    },
    {
      "name": "Object_5",
      "primitives": [
        {
          "attributes": {
            "NORMAL": 21,
            "POSITION": 20,
            "TEXCOORD_0": 22
          },
          "indices": 23,
          "material": 5,
          "mode": 4
        }
      ]
    },
    {
      "name": "Object_6",
      "primitives": [
        {
          "attributes": {
            "NORMAL": 25,
            "POSITION": 24,
            "TEXCOORD_0": 26
          },
          "indices": 27,
          "material": 5,
          "mode": 4
        }
      ]
    },
    {
      "name": "Object_7",
      "primitives": [
        {
          "attributes": {
            "NORMAL": 29,
            "POSITION": 28,
            "TEXCOORD_0": 30
          },
          "indices": 31,
          "material": 5,
          "mode": 4
        }
      ]
    },
    {
      "name": "Object_8",
      "primitives": [
        {
          "attributes": {
            "NORMAL": 33,
            "POSITION": 32,
            "TEXCOORD_0": 34
          },
          "indices": 35,
          "material": 5,
          "mode": 4
        }
      ]
    },
    {
      "name": "Object_9",
      "primitives": [
        {
          "attributes": {
            "NORMAL": 37,
            "POSITION": 36,
            "TEXCOORD_0": 38
          },
          "indices": 39,
          "material": 5,
          "mode": 4
        }
      ]
    },
    {
      "name": "Object_10",
      "primitives": [
        {
          "attributes": {
            "NORMAL": 41,
            "POSITION": 40,
            "TEXCOORD_0": 42
          },
          "indices": 43,
          "material": 5,
          "mode": 4
        }
      ]
    },
    {
      "name": "Object_11",
      "primitives": [
        {
          "attributes": {
            "NORMAL": 45,
            "POSITION": 44,
            "TEXCOORD_0": 46
          },
          "indices": 47,
          "material": 5,
          "mode": 4
        }
      ]
    },
    {
      "name": "Object_12",
      "primitives": [
        {
          "attributes": {
            "NORMAL": 49,
            "POSITION": 48,
            "TEXCOORD_0": 50
          },
          "indices": 51,
          "material": 6,
          "mode": 4
        }
      ]
    }
  ],
  "nodes": [
    {
      "children": [
        1
      ],
      "matrix": [
        1.0,
        0.0,
        0.0,
        0.0,
        0.0,
        2.220446049250313e-16,
        -1.0,
        0.0,
        0.0,
        1.0,
        2.220446049250313e-16,
        0.0,
        0.0,
        0.0,
        0.0,
        1.0
      ],
      "name": "Sketchfab_model"
    },
    {
      "children": [
        2,
        3,
        4,
        5,
        6,
        7,
        8,
        9,
        10,
        11,
        12,
        13,
        14
      ],
      "name": "Testing2.obj.cleaner"
    },
    {
      "mesh": 0,
      "name": "Object_2"
    },
    {
      "mesh": 1,
      "name": "Object_3"
    },
    {
      "mesh": 2,
      "name": "Object_4"
    },
    {
      "mesh": 3,
      "name": "Object_5"
    },
    {
      "mesh": 4,
      "name": "Object_6"
    },
    {
      "mesh": 5,
      "name": "Object_7"
    },
    {
      "mesh": 6,
      "name": "Object_8"
    },
    {
      "mesh": 7,
      "name": "Object_9"
    },
    {
      "mesh": 8,
      "name": "Object_10"
    },
    {
      "mesh": 9,
      "name": "Object_11"
    },
    {
      "mesh": 10,
      "name": "Object_12"
    },
    {
      "mesh": 11,
      "name": "Object_13"
    },
    {
      "mesh": 12,
      "name": "Object_14"
    }
  ],
  "samplers": [
    {
      "magFilter": 9728,
      "minFilter": 9728,
      "wrapS": 10497,
      "wrapT": 10497
    },
    {
      "magFilter": 9729,
      "minFilter": 9987,
      "wrapS": 10497,
      "wrapT": 10497
    }
  ],
  "scene": 0,
  "scenes": [
    {
      "name": "Sketchfab_Scene",
      "nodes": [
        0
      ]
    }
  ],
  "textures": [
    {
      "sampler": 0,
      "source": 0
    },
    {
      "sampler": 1,
      "source": 0
    },
    {
      "sampler": 0,
      "source": 1
    },
    {
      "sampler": 0,
      "source": 2
    },
    {
      "sampler": 1,
      "source": 2
    },
    {
      "sampler": 0,
      "source": 3
    },
    {
      "sampler": 0,
      "source": 4
    },
    {
      "sampler": 0,
      "source": 5
    },
    {
      "sampler": 0,
      "source": 6
    }
  ]
}
