{
  "accessors": [
    {
      "bufferView": 2,
      "componentType": 5126,
      "count": 65532,
      "max": [
        0.5,
        -0.34237000346183777,
        0.5
      ],
      "min": [
        -0.5,
        -0.5741919875144958,
        -0.5
      ],
      "type": "VEC3"
    },
    {
      "bufferView": 2,
      "byteOffset": 786384,
      "componentType": 5126,
      "count": 65532,
      "max": [
        0.9892831444740295,
        -0.12523001432418823,
        0.978069007396698
      ],
      "min": [
        -0.9821123480796814,
        -1.0,
        -0.9832282662391663
      ],
      "type": "VEC3"
    },
    {
      "bufferView": 3,
      "componentType": 5126,
      "count": 65532,
      "max": [
        0.5882353186607361,
        0.5960784554481506,
        0.5882353186607361,
        1.0
      ],
      "min": [
        0.0235294122248888,
        0.1882352977991104,
        0.0235294122248888,
        1.0
      ],
      "type": "VEC4"
    },
    {
      "bufferView": 1,
      "componentType": 5126,
      "count": 65532,
      "max": [
        1.0,
        1.0
      ],
      "min": [
        0.0,
        0.0
      ],
      "type": "VEC2"
    },
    {
      "bufferView": 0,
      "componentType": 5125,
      "count": 317355,
      "type": "SCALAR"
    },
    {
      "bufferView": 2,
      "byteOffset": 1572768,
      "componentType": 5126,
      "count": 65532,
      "max": [
        0.5,
        -0.3060939908027649,
        0.39041098952293396
      ],
      "min": [
        -0.4980430006980896,
        -0.6256150007247925,
        -0.5
      ],
      "type": "VEC3"
    },
    {
      "bufferView": 2,
      "byteOffset": 2359152,
      "componentType": 5126,
      "count": 65532,
      "max": [
        0.9770437479019165,
        -0.12702493369579315,
        0.9830762147903442
      ],
      "min": [
        -0.9900181293487549,
        -1.0,
        -0.9800393581390381
      ],
      "type": "VEC3"
    },
    {
      "bufferView": 3,
      "byteOffset": 1048512,
      "componentType": 5126,
      "count": 65532,
      "max": [
        0.7921568751335144,
        0.5960784554481506,
        0.5882353186607361,
        1.0
      ],
      "min": [
        0.0235294122248888,
        0.16078431904315948,
        0.0235294122248888,
        1.0
      ],
      "type": "VEC4"
    },
    {
      "bufferView": 1,
      "byteOffset": 524256,
      "componentType": 5126,
      "count": 65532,
      "max": [
        1.0,
        0.8904110193252563
      ],
      "min": [
        0.0019570000004023314,
        0.0
      ],
      "type": "VEC2"
    },
    {
      "bufferView": 0,
      "byteOffset": 1269420,
      "componentType": 5125,
      "count": 327348,
      "type": "SCALAR"
    },
    {
      "bufferView": 2,
      "byteOffset": 3145536,
      "componentType": 5126,
      "count": 65532,
      "max": [
        0.5,
        -0.4239009916782379,
        -0.08512700349092484
      ],
      "min": [
        -0.4941290020942688,
        -0.6404529809951782,
        -0.5
      ],
      "type": "VEC3"
    },
    {
      "bufferView": 2,
      "byteOffset": 3931920,
      "componentType": 5126,
      "count": 65532,
      "max": [
        0.9812905788421631,
        -0.13309304416179657,
        0.9850780963897705
      ],
      "min": [
        -0.9788982272148132,
        -1.0,
        -0.9749692678451538
      ],
      "type": "VEC3"
    },
    {
      "bufferView": 3,
      "byteOffset": 2097024,
      "componentType": 5126,
      "count": 65532,
      "max": [
        0.7921568751335144,
        0.5921568870544434,
        0.5882353186607361,
        1.0
      ],
      "min": [
        0.0235294122248888,
        0.16078431904315948,
        0.0235294122248888,
        1.0
      ],
      "type": "VEC4"
    },
    {
      "bufferView": 1,
      "byteOffset": 1048512,
      "componentType": 5126,
      "count": 65532,
      "max": [
        1.0,
        0.41487300395965576
      ],
      "min": [
        0.00587099976837635,
        0.0
      ],
      "type": "VEC2"
    },
    {
      "bufferView": 0,
      "byteOffset": 2578812,
      "componentType": 5125,
      "count": 315186,
      "type": "SCALAR"
    },
    {
      "bufferView": 2,
      "byteOffset": 4718304,
      "componentType": 5126,
      "count": 65532,
      "max": [
        0.5,
        -0.30587199330329895,
        0.4960860013961792
      ],
      "min": [
        -0.4960860013961792,
        -0.640438973903656,
        -0.5
      ],
      "type": "VEC3"
    },
    {
      "bufferView": 2,
      "byteOffset": 5504688,
      "componentType": 5126,
      "count": 65532,
      "max": [
        0.9830219745635986,
        -0.13954393565654755,
        0.983306348323822
      ],
      "min": [
        -0.9900181293487549,
        -1.0,
        -0.9741381406784058
      ],
      "type": "VEC3"
    },
    {
      "bufferView": 3,
      "byteOffset": 3145536,
      "componentType": 5126,
      "count": 65532,
      "max": [
        0.7921568751335144,
        0.5960784554481506,
        0.5882353186607361,
        1.0
      ],
      "min": [
        0.0235294122248888,
        0.16078431904315948,
        0.0235294122248888,
        1.0
      ],
      "type": "VEC4"
    },
    {
      "bufferView": 1,
      "byteOffset": 1572768,
      "componentType": 5126,
      "count": 65532,
      "max": [
        1.0,
        0.9960860013961792
      ],
      "min": [
        0.003914000000804663,
        0.0
      ],
      "type": "VEC2"
    },
    {
      "bufferView": 0,
      "byteOffset": 3839556,
      "componentType": 5125,
      "count": 303789,
      "type": "SCALAR"
    },
    {
      "bufferView": 2,
      "byteOffset": 6291072,
      "componentType": 5126,
      "count": 65532,
      "max": [
        0.5,
        -0.31582701206207275,
        0.4941290020942688
      ],
      "min": [
        -0.4980430006980896,
        -0.5751140117645264,
        0.04403100162744522
      ],
      "type": "VEC3"
    },
    {
      "bufferView": 2,
      "byteOffset": 7077456,
      "componentType": 5126,
      "count": 65532,
      "max": [
        0.9842967391014099,
        -0.15374000370502472,
        0.9747126698493958
      ],
      "min": [
        -0.979661226272583,
        -1.0,
        -0.9784978628158569
      ],
      "type": "VEC3"
    },
    {
      "bufferView": 3,
      "byteOffset": 4194048,
      "componentType": 5126,
      "count": 65532,
      "max": [
        0.5882353186607361,
        0.5960784554481506,
        0.5882353186607361,
        1.0
      ],
      "min": [
        0.0235294122248888,
        0.16078431904315948,
        0.0235294122248888,
        1.0
      ],
      "type": "VEC4"
    },
    {
      "bufferView": 1,
      "byteOffset": 2097024,
      "componentType": 5126,
      "count": 65532,
      "max": [
        1.0,
        0.9941290020942688
      ],
      "min": [
        0.0019570000004023314,
        0.544031023979187
      ],
      "type": "VEC2"
    },
    {
      "bufferView": 0,
      "byteOffset": 5054712,
      "componentType": 5125,
      "count": 299247,
      "type": "SCALAR"
    },
    {
      "bufferView": 2,
      "byteOffset": 7863840,
      "componentType": 5126,
      "count": 1344,
      "max": [
        0.4960860013961792,
        -0.40510299801826477,
        0.4960860013961792
      ],
      "min": [
        -0.490215003490448,
        -0.5730469822883606,
        0.4745599925518036
      ],
      "type": "VEC3"
    },
    {
      "bufferView": 2,
      "byteOffset": 7879968,
      "componentType": 5126,
      "count": 1344,
      "max": [
        0.9813750982284546,
        -0.15366792678833008,
        0.8775151371955872
      ],
      "min": [
        -0.9679210186004639,
        -1.0,
        -0.6712766885757446
      ],
      "type": "VEC3"
    },
    {
      "bufferView": 3,
      "byteOffset": 5242560,
      "componentType": 5126,
      "count": 1344,
      "max": [
        0.5882353186607361,
        0.5882353186607361,
        0.5882353186607361,
        1.0
      ],
      "min": [
        0.0235294122248888,
        0.1882352977991104,
        0.0235294122248888,
        1.0
      ],
      "type": "VEC4"
    },
    {
      "bufferView": 1,
      "byteOffset": 2621280,
      "componentType": 5126,
      "count": 1344,
      "max": [
        0.9960860013961792,
        0.9960860013961792
      ],
      "min": [
        0.0097850002348423,
        0.974560022354126
      ],
      "type": "VEC2"
    },
    {
      "bufferView": 0,
      "byteOffset": 6251700,
      "componentType": 5125,
      "count": 3801,
      "type": "SCALAR"
    }
  ],
  "asset": {
    "extras": {
      "author": "photogrammetryblender3D (https://sketchfab.com/photogrammetryblender3D)",
      "license": "CC-BY-NC-ND-4.0 (http://creativecommons.org/licenses/by-nc-nd/4.0/)",
      "source": "https://sketchfab.com/3d-models/cartoon-land-on-world-machine-vr-ready-987df273554441508fed8888e09d8423",
      "title": "Cartoon Land (on World Machine) VR READY!"
    },
    "generator": "Sketchfab-12.68.0",
    "version": "2.0"
  },
  "bufferViews": [
    {
      "buffer": 0,
      "byteLength": 6266904,
      "name": "floatBufferViews",
      "target": 34963
    },
    {
      "buffer": 0,
      "byteLength": 2632032,
      "byteOffset": 6266904,
      "byteStride": 8,
      "name": "floatBufferViews",
      "target": 34962
    },
    {
      "buffer": 0,
      "byteLength": 7896096,
      "byteOffset": 8898936,
      "byteStride": 12,
      "name": "floatBufferViews",
      "target": 34962
    },
    {
      "buffer": 0,
      "byteLength": 5264064,
      "byteOffset": 16795032,
      "byteStride": 16,
      "name": "floatBufferViews",
      "target": 34962
    }
  ],
  "buffers": [
    {
      "byteLength": 22059096,
      "uri": "scene.bin"
    }
  ],
  "materials": [
    {
      "doubleSided": true,
      "name": "material_0",
      "pbrMetallicRoughness": {
        "metallicFactor": 0.0,
        "roughnessFactor": 0.6
      }
    }
  ],
  "meshes": [
    {
      "name": "Object_0",
      "primitives": [
        {
          "attributes": {
            "COLOR_0": 2,
            "NORMAL": 1,
            "POSITION": 0,
            "TEXCOORD_0": 3
          },
          "indices": 4,
          "material": 0,
          "mode": 4
        }
      ]
    },
    {
      "name": "Object_1",
      "primitives": [
        {
          "attributes": {
            "COLOR_0": 7,
            "NORMAL": 6,
            "POSITION": 5,
            "TEXCOORD_0": 8
          },
          "indices": 9,
          "material": 0,
          "mode": 4
        }
      ]
    },
    {
      "name": "Object_2",
      "primitives": [
        {
          "attributes": {
            "COLOR_0": 12,
            "NORMAL": 11,
            "POSITION": 10,
            "TEXCOORD_0": 13
          },
          "indices": 14,
          "material": 0,
          "mode": 4
        }
      ]
    },
    {
      "name": "Object_3",
      "primitives": [
        {
          "attributes": {
            "COLOR_0": 17,
            "NORMAL": 16,
            "POSITION": 15,
            "TEXCOORD_0": 18
          },
          "indices": 19,
          "material": 0,
          "mode": 4
        }
      ]
    },
    {
      "name": "Object_4",
      "primitives": [
        {
          "attributes": {
            "COLOR_0": 22,
            "NORMAL": 21,
            "POSITION": 20,
            "TEXCOORD_0": 23
          },
          "indices": 24,
          "material": 0,
          "mode": 4
        }
      ]
    },
    {
      "name": "Object_5",
      "primitives": [
        {
          "attributes": {
            "COLOR_0": 27,
            "NORMAL": 26,
            "POSITION": 25,
            "TEXCOORD_0": 28
          },
          "indices": 29,
          "material": 0,
          "mode": 4
        }
      ]
    }
  ],
  "nodes": [
    {
      "children": [
        1
      ],
      "matrix": [
        50.9512939453125,
        0.0,
        0.0,
        0.0,
        0.0,
        -50.84946859272168,
        -3.2196091392779747,
        0.0,
        0.0,
        3.2196091392779747,
        -50.84946859272168,
        0.0,
        0.0,
        -0.47221723198890697,
        0.4432634413242339,
        1.0
      ],
      "name": "Sketchfab_model"
    },
    {
      "children": [
        2,
        3,
        4,
        5,
        6,
        7
      ],
      "name": "placeholder1.obj.cleaner.materialmerger.gles"
    },
    {
      "mesh": 0,
      "name": "Object_2"
    },
    {
      "mesh": 1,
      "name": "Object_3"
    },
    {
      "mesh": 2,
      "name": "Object_4"
    },
    {
      "mesh": 3,
      "name": "Object_5"
    },
    {
      "mesh": 4,
      "name": "Object_6"
    },
    {
      "mesh": 5,
      "name": "Object_7"
    }
  ],
  "scene": 0,
  "scenes": [
    {
      "name": "Sketchfab_Scene",
      "nodes": [
        0
      ]
    }
  ]
}
